<svg xmlns="http://www.w3.org/2000/svg" width="191.037" height="39.38" viewBox="0 0 191.037 39.38">
  <g id="Grupo_11576" data-name="Grupo 11576" transform="translate(-144.631 -125.296)">
    <g id="Grupo_11576-2" data-name="Grupo 11576" transform="translate(250.738 157.641)">
      <path id="Trazado_42376" data-name="Trazado 42376" d="M441.434,227.67a1.418,1.418,0,0,0,.3-.9,1.321,1.321,0,0,0-.486-1.1,2.108,2.108,0,0,0-1.333-.376h-2.4v4.8h1.165v-1.747h.973l1.038,1.7.029.048h1.325l-1.27-1.974A1.363,1.363,0,0,0,441.434,227.67Zm-2.757-1.419h1.134a.928.928,0,0,1,.574.145.493.493,0,0,1,.174.418.543.543,0,0,1-.175.436.812.812,0,0,1-.547.158h-1.16Z" transform="translate(-437.512 -225.233)" fill="#ff5100"/>
      <path id="Trazado_42377" data-name="Trazado 42377" d="M456.744,225.417a2.689,2.689,0,0,0-1.3-.295,2.719,2.719,0,0,0-1.3.292,2,2,0,0,0-.838.847,2.8,2.8,0,0,0-.287,1.31,2.834,2.834,0,0,0,.289,1.319,2.054,2.054,0,0,0,.837.866,2.628,2.628,0,0,0,1.289.3,2.565,2.565,0,0,0,1.279-.31,2.167,2.167,0,0,0,.852-.875,2.718,2.718,0,0,0,.3-1.3,2.772,2.772,0,0,0-.289-1.3A2.03,2.03,0,0,0,456.744,225.417Zm-1.306,3.682a1.122,1.122,0,0,1-1.09-.7,2.039,2.039,0,0,1-.154-.828,1.679,1.679,0,0,1,.329-1.106,1.131,1.131,0,0,1,.923-.384,1.112,1.112,0,0,1,.912.387,1.681,1.681,0,0,1,.329,1.1,1.76,1.76,0,0,1-.327,1.141A1.12,1.12,0,0,1,455.439,229.1Z" transform="translate(-447.097 -225.122)" fill="#ff5100"/>
      <path id="Trazado_42378" data-name="Trazado 42378" d="M473.833,227.559a1.027,1.027,0,0,0,.355-.277,1.122,1.122,0,0,0,.24-.724,1.071,1.071,0,0,0-.477-.947,2.386,2.386,0,0,0-1.331-.31h-2.207v4.8h2.4a2.293,2.293,0,0,0,1.365-.362,1.23,1.23,0,0,0,.511-1.051,1.109,1.109,0,0,0-.323-.828A1.3,1.3,0,0,0,473.833,227.559Zm-.721-.524a.9.9,0,0,1-.531.121h-1v-.938h1a.975.975,0,0,1,.53.114.392.392,0,0,1,.153.357A.409.409,0,0,1,473.112,227.035Zm-1.534,1.033h1.12c.741,0,.827.312.827.546a.5.5,0,0,1-.176.425,1.007,1.007,0,0,1-.615.147h-1.156Z" transform="translate(-457.842 -225.233)" fill="#ff5100"/>
      <path id="Trazado_42379" data-name="Trazado 42379" d="M489.644,225.417a2.694,2.694,0,0,0-1.3-.295,2.723,2.723,0,0,0-1.3.292,2,2,0,0,0-.838.847,2.8,2.8,0,0,0-.287,1.31,2.843,2.843,0,0,0,.289,1.319,2.062,2.062,0,0,0,.837.866,2.628,2.628,0,0,0,1.289.3,2.559,2.559,0,0,0,1.279-.31,2.164,2.164,0,0,0,.852-.875,2.711,2.711,0,0,0,.3-1.3,2.765,2.765,0,0,0-.289-1.3A2.022,2.022,0,0,0,489.644,225.417Zm-1.306,3.682a1.122,1.122,0,0,1-1.09-.7,2.012,2.012,0,0,1-.155-.827,1.681,1.681,0,0,1,.329-1.106,1.127,1.127,0,0,1,.922-.384,1.113,1.113,0,0,1,.912.387,1.68,1.68,0,0,1,.33,1.1,1.755,1.755,0,0,1-.328,1.141A1.119,1.119,0,0,1,488.338,229.1Z" transform="translate(-467.426 -225.122)" fill="#ff5100"/>
      <path id="Trazado_42380" data-name="Trazado 42380" d="M502.34,226.248h1.486V230.1h1.164v-3.856h1.489V225.3H502.34Z" transform="translate(-477.571 -225.234)" fill="#ff5100"/>
      <rect id="Rect치ngulo_478" data-name="Rect치ngulo 478" width="1.165" height="4.801" transform="translate(30.496 0.069)" fill="#ff5100"/>
      <path id="Trazado_42381" data-name="Trazado 42381" d="M528.6,228.288a1.116,1.116,0,0,1-1.117.811,1.282,1.282,0,0,1-.686-.173,1.058,1.058,0,0,1-.418-.5,2.178,2.178,0,0,1-.147-.852,1.718,1.718,0,0,1,.315-1.121,1.109,1.109,0,0,1,.913-.369,1.242,1.242,0,0,1,.688.188.9.9,0,0,1,.382.5l.029.093,1.044-.285-.033-.1a1.826,1.826,0,0,0-.756-1.009,2.522,2.522,0,0,0-1.373-.341,2.729,2.729,0,0,0-1.294.284,1.9,1.9,0,0,0-.813.839,2.952,2.952,0,0,0-.272,1.325,2.911,2.911,0,0,0,.284,1.332,1.982,1.982,0,0,0,.833.86,2.7,2.7,0,0,0,1.305.3,2.444,2.444,0,0,0,1.308-.34,2.113,2.113,0,0,0,.835-1.039l.039-.1-1.03-.388Z" transform="translate(-491.613 -225.122)" fill="#ff5100"/>
      <path id="Trazado_42382" data-name="Trazado 42382" d="M552.8,227.606a1.149,1.149,0,0,0-.212-.16,2.082,2.082,0,0,0-.271-.138,3.3,3.3,0,0,0-.394-.126q-.24-.064-.573-.137a4.319,4.319,0,0,1-.721-.193.633.633,0,0,1-.239-.167.348.348,0,0,1-.07-.23.353.353,0,0,1,.171-.327,1.168,1.168,0,0,1,.6-.122,1.033,1.033,0,0,1,.575.133.617.617,0,0,1,.251.387l.021.088,1.13-.154-.021-.1a1.378,1.378,0,0,0-.6-.951,2.567,2.567,0,0,0-1.338-.283,2.458,2.458,0,0,0-1.422.35,1.2,1.2,0,0,0-.511,1.037,1.335,1.335,0,0,0,.15.659,1.153,1.153,0,0,0,.419.43c.077.045.155.086.238.124a2.539,2.539,0,0,0,.327.116c.132.038.314.085.55.14q.3.062.5.112a2.361,2.361,0,0,1,.293.089.772.772,0,0,1,.29.186.365.365,0,0,1,.088.256.4.4,0,0,1-.2.374,1.8,1.8,0,0,1-1.414-.011.726.726,0,0,1-.323-.47l-.023-.089-1.126.186.024.1c.2.89.92,1.342,2.132,1.342a2.628,2.628,0,0,0,1.529-.376,1.291,1.291,0,0,0,.543-1.115,1.473,1.473,0,0,0-.1-.545A1.17,1.17,0,0,0,552.8,227.606Z" transform="translate(-506.369 -225.122)" fill="#ff5100"/>
      <path id="Trazado_42383" data-name="Trazado 42383" d="M565.829,228.148h2.455V227.2h-2.455v-.955h2.654V225.3h-3.818v4.8h3.953v-.946h-2.788Z" transform="translate(-516.083 -225.234)" fill="#ff5100"/>
      <path id="Trazado_42384" data-name="Trazado 42384" d="M583.584,227.67a1.418,1.418,0,0,0,.3-.9,1.321,1.321,0,0,0-.485-1.1,2.108,2.108,0,0,0-1.333-.376h-2.4v4.8h1.165v-1.747h.973l1.038,1.7.029.048h1.325l-1.27-1.974A1.362,1.362,0,0,0,583.584,227.67Zm-2.757-1.419h1.134a.929.929,0,0,1,.574.145.493.493,0,0,1,.174.418.543.543,0,0,1-.175.436.812.812,0,0,1-.547.158h-1.16Z" transform="translate(-525.35 -225.233)" fill="#ff5100"/>
      <path id="Trazado_42385" data-name="Trazado 42385" d="M596.621,228.324c-.022.065-.05.16-.083.285q-.022.086-.058.221c-.013-.049-.026-.1-.039-.139q-.061-.219-.107-.365l-.969-3.025h-1.224l1.776,4.8h1.116l1.765-4.8h-1.213Z" transform="translate(-534.298 -225.233)" fill="#ff5100"/>
      <rect id="Rect치ngulo_479" data-name="Rect치ngulo 479" width="1.165" height="4.801" transform="translate(66.021 0.069)" fill="#ff5100"/>
      <path id="Trazado_42386" data-name="Trazado 42386" d="M621.581,228.288a1.116,1.116,0,0,1-1.117.811,1.283,1.283,0,0,1-.686-.173,1.058,1.058,0,0,1-.418-.5,2.177,2.177,0,0,1-.147-.852,1.718,1.718,0,0,1,.315-1.121,1.109,1.109,0,0,1,.914-.369,1.242,1.242,0,0,1,.688.188.9.9,0,0,1,.382.5l.029.093,1.044-.285-.033-.1a1.826,1.826,0,0,0-.756-1.009,2.522,2.522,0,0,0-1.373-.341,2.729,2.729,0,0,0-1.294.284,1.9,1.9,0,0,0-.813.839,2.952,2.952,0,0,0-.272,1.325,2.911,2.911,0,0,0,.284,1.332,1.982,1.982,0,0,0,.833.86,2.7,2.7,0,0,0,1.305.3,2.445,2.445,0,0,0,1.308-.34,2.113,2.113,0,0,0,.835-1.039l.039-.1-1.03-.388Z" transform="translate(-549.066 -225.122)" fill="#ff5100"/>
      <path id="Trazado_42387" data-name="Trazado 42387" d="M635.622,228.148h2.455V227.2h-2.455v-.955h2.654V225.3h-3.819v4.8h3.953v-.946h-2.788Z" transform="translate(-559.209 -225.234)" fill="#ff5100"/>
      <path id="Trazado_42388" data-name="Trazado 42388" d="M652.866,228.021a1.181,1.181,0,0,0-.278-.415,1.218,1.218,0,0,0-.212-.161,2.28,2.28,0,0,0-.27-.138,3.3,3.3,0,0,0-.394-.126q-.241-.064-.573-.137a4.357,4.357,0,0,1-.722-.193.635.635,0,0,1-.238-.167.348.348,0,0,1-.07-.23.354.354,0,0,1,.171-.327,1.175,1.175,0,0,1,.6-.122,1.031,1.031,0,0,1,.575.133.616.616,0,0,1,.251.387l.021.088,1.131-.154-.021-.105a1.381,1.381,0,0,0-.6-.95,2.567,2.567,0,0,0-1.338-.283,2.451,2.451,0,0,0-1.421.35,1.2,1.2,0,0,0-.511,1.037,1.343,1.343,0,0,0,.149.659,1.153,1.153,0,0,0,.419.43c.077.045.156.086.238.124a2.586,2.586,0,0,0,.327.116c.131.038.314.085.549.14.2.041.365.078.5.112a2.374,2.374,0,0,1,.294.089.759.759,0,0,1,.289.186.364.364,0,0,1,.089.256.406.406,0,0,1-.2.374,1.8,1.8,0,0,1-1.414-.011.729.729,0,0,1-.324-.47l-.023-.089-1.126.186.024.1c.2.89.92,1.342,2.132,1.342a2.63,2.63,0,0,0,1.529-.376,1.291,1.291,0,0,0,.544-1.116A1.462,1.462,0,0,0,652.866,228.021Z" transform="translate(-568.031 -225.122)" fill="#ff5100"/>
    </g>
    <g id="Grupo_11577" data-name="Grupo 11577" transform="translate(189.207 134.338)">
      <path id="Trazado_42389" data-name="Trazado 42389" d="M299.1,178.915v7.88l-.024.273-.064.241-.112.217-.145.168-.185.128-.2.088-.241.048-.273.024-.265-.024-.233-.056-.217-.1-.177-.136-.136-.185-.1-.209-.056-.241-.016-8.266-.056-.385-.064-.16-.2-.289-.3-.257-.417-.209-.538-.168-.658-.112-1.2-.056-.522.008-.923.064-.778.136-.65.193-.513.257-.2.152-.168.161-.137.176-.1.185-.072.2-.04.209-.016,7.92-.024.273-.056.241-.1.209-.144.177-.177.128-.2.08-.225.056-.257.016-.281-.016-.241-.056-.225-.1-.185-.144-.144-.177-.1-.217-.056-.241-.024-7.944-.016-.241-.048-.217-.072-.193-.1-.185-.313-.329-.441-.273-.586-.225-.738-.16-.875-.1-1.011-.032-.867.032-.738.088-.626.136-.5.193-.377.249-.257.281-.144.321-.048.353v8.009l-.024.273-.064.249-.1.209-.152.168-.185.136-.209.08-.241.056-.273.016-.265-.016-.233-.056-.217-.1-.177-.144-.136-.177-.1-.217-.048-.241-.016-8,.016-.505.072-.482.112-.441.169-.417.217-.385.265-.345.313-.313.361-.281.4-.241.441-.217.5-.169.538-.152.578-.112.634-.08.674-.048.714-.016,1.067.024.955.1.859.168.754.233.65.313.546.377.241.225.225.257.217.193.417-.466.241-.217.538-.377.634-.305.714-.233.81-.168.9-.1,1-.032.706.016.658.048.61.08.57.112.53.152.481.177.433.217.4.249.345.281.305.313.257.353.217.385.153.409.12.449.064.457Z" transform="translate(-276.467 -170.737)" fill="#333"/>
      <path id="Trazado_42390" data-name="Trazado 42390" d="M464.739,175.973l-.008,8.129-.016.465-.08.449-.12.409-.177.385-.225.345-.281.313-.329.289-.369.257-.417.225-.466.193-.513.16-.562.129-.61.1-1.356.12-4.638.016-.77-.016-.714-.048-.674-.072-.618-.1-.578-.136-.522-.161-.474-.193-.425-.225-.385-.257-.329-.289-.289-.321-.225-.353-.185-.385-.12-.409-.072-.449-.016-8.611.016-.257.064-.233.112-.2.136-.16.185-.12.2-.088.233-.048.265-.016.273.016.241.056.209.088.185.128.144.169.1.193.064.233.016,8.394.056.361.152.3.265.265.377.216.506.185.61.128.754.088,5.473.024.441-.008.778-.048.674-.1.554-.16.425-.2.313-.249.112-.128.137-.3.048-.345-.008-8.2.024-.265.072-.225.112-.193.144-.16.185-.12.209-.08.233-.048.273-.016.265.016.233.056.208.088.177.128.136.177.1.193Z" transform="translate(-382.57 -170.724)" fill="#333"/>
      <path id="Trazado_42391" data-name="Trazado 42391" d="M503.979,167.983l-.024.289-.088.289-.152.233-.2.192-.241.145-.281.1-.329.056-.377.016-.361-.016-.321-.064-.273-.1-.233-.152-.185-.209-.128-.241-.072-.281-.024-.3.032-.329.08-.289.136-.249.185-.193.233-.152.273-.1.313-.056.361-.016.377.016.337.056.289.112.241.152.2.209.136.249.072.249.032.321Z" transform="translate(-415.019 -165.624)" fill="#333"/>
      <path id="Trazado_42392" data-name="Trazado 42392" d="M504.233,177.328l.008,10.416-.024.281-.064.249-.112.217-.144.168-.185.128-.208.088-.241.056-.273.016-.265-.024-.241-.056-.2-.1-.177-.136-.136-.185-.1-.217-.056-.241-.016-10.424.016-.273.064-.233.1-.217.137-.16.177-.137.193-.088.225-.048.249-.016.289.016.257.056.224.1.193.137.144.176.1.217.056.2Z" transform="translate(-415.707 -171.711)" fill="#333"/>
      <path id="Trazado_42393" data-name="Trazado 42393" d="M535.943,178.051l.016.3v8.434l-.024.273-.064.241-.1.209-.144.176-.177.128-.209.08-.233.056-.273.016-.273-.016-.241-.064-.209-.088-.185-.144-.136-.177-.1-.217-.056-.241-.016-8.53-.048-.321-.129-.265-.208-.225-.3-.193-.409-.16-.794-.161-1.019-.056-5.609.008h-.369l-.963.1-.506.112-.417.168-.313.2-.209.241-.112.265-.04.3v8.274l-.024.281-.064.241-.1.209-.152.168-.177.136-.2.08-.241.056-.265.016-.273-.024-.241-.056-.217-.088-.177-.144-.144-.185-.1-.209-.056-.241-.008-8.538.016-.449.072-.417.121-.4.168-.361.217-.329.265-.305.313-.281.353-.233.4-.217.449-.177.489-.16.538-.12.57-.1.626-.072,1.38-.056h4.341l.738.016.674.04.634.072.586.1.538.128.489.152.45.185.393.217.361.241.3.281.265.305.217.337.161.369.12.393.064.4Z" transform="translate(-426.722 -170.724)" fill="#333"/>
      <path id="Trazado_42394" data-name="Trazado 42394" d="M580.112,169.115l.016.265-.016.257-.056.241-.1.2-.121.16-.16.128-.185.088-.209.048-4.5.016v9.67l-.024.273-.064.233-.1.217-.144.168-.177.136-.2.08-.233.056-.265.016-.273-.024-.249-.056-.217-.1-.185-.136-.144-.177-.1-.217-.056-.241-.008-9.9h-.907l-.233-.024-.217-.056-.185-.1-.152-.136-.12-.185-.088-.2-.04-.233-.016-.257.016-.265.056-.225.088-.193.129-.168.152-.12.177-.088.2-.048,1.14-.008v-2.881l.024-.281.064-.249.112-.217.152-.168.177-.129.217-.088.249-.056.281-.008.257.016.233.056.209.1.177.145.128.177.1.217.048.241.016,3.13,4.293.008.233.008.217.056.185.088.161.144.112.169.08.2.048.209Z" transform="translate(-458.087 -164.131)" fill="#333"/>
      <path id="Trazado_42395" data-name="Trazado 42395" d="M618.306,177.545l-.1-.377-.144-.353-.2-.329-.233-.3-.273-.265-.321-.233-.353-.208-.393-.185-.441-.153-.465-.12-.514-.1-1.14-.113-.642-.016h-5.015l-1.445.072-.65.08-.61.112-.554.136-.514.169-.457.2-.418.233-.369.265-.329.3-.273.329-.225.369-.176.385-.12.434-.073.457-.016.481.016,5.28.065.465.128.433.169.4.225.377.281.337.329.3.369.273.425.241.474.2.514.177.57.144.61.113.658.08.706.048.77.016,2.078-.024.217-.048.185-.088.16-.129.128-.169.1-.2.056-.241.024-.257-.024-.257-.048-.233-.088-.2-.12-.177-.161-.137-.193-.088-.217-.048-.233-.016-3.242-.024-.979-.128-.722-.241-.353-.209-.233-.249-.144-.289-.057-.353v-1.38l13.209-.008.224-.048.193-.088.177-.136.136-.177.1-.217.064-.249.016-.289v-2.929Zm-2.359,2.664h-11.66l.008-1.685.089-.329.185-.288.289-.249.409-.217.514-.16.626-.1.73-.056.409-.008h5.978l.594.024.5.072.417.112.337.16.289.249.168.249.08.233.04.361Z" transform="translate(-477.523 -170.724)" fill="#333"/>
      <path id="Trazado_42396" data-name="Trazado 42396" d="M655.854,165.327v14.854l-.016.273-.064.249-.112.209-.144.168-.169.128-.209.088-.233.056-.265.016-.281-.016-.241-.056-.217-.1-.185-.136-.136-.185-.1-.209-.056-.249-.016-15.095.016-.273.064-.249.1-.217.144-.168.185-.136.2-.08.233-.056.265-.008.281.016.241.048.217.1.177.137.145.177.1.217.056.241.016.241Z" transform="translate(-509.393 -164.131)" fill="#333"/>
      <path id="Trazado_42397" data-name="Trazado 42397" d="M412.788,178.171l-.064-.409-.112-.417-.169-.385-.209-.345-.264-.321-.313-.288-.353-.257-.4-.225-.449-.192-.489-.161-.53-.136-.586-.1-.618-.072-.674-.048-.723-.008-4.277-.008-1.453.064-.666.072-.61.1-.562.128-.522.152-.465.193-.417.217-.377.249-.329.273-.273.321-.233.337-.177.377-.128.409-.072.433-.016.458.016,5.593.056.457.1.417.161.393.2.369.241.329.3.3.329.265.377.233.425.2.457.168.505.144.554.1.586.08.626.048.69.024h8.49l.016,3.057.048.265.1.225.136.193.177.144.217.112.241.064.273.016.272-.016.241-.056.209-.1.177-.136.144-.193.1-.225.064-.257.016-.3.008-12Zm-2.423,7.23-9.542-.024-.578-.08-.49-.136-.385-.177-.289-.225-.209-.281-.128-.313-.048-.4.016-5.272.088-.313.185-.281.305-.249.425-.209.554-.152.658-.112.778-.056.434-.008,4.983-.008,1.139.064.618.112.505.152.4.209.289.249.185.288.1.337.016.2Z" transform="translate(-350.488 -170.724)" fill="#333"/>
      <path id="Trazado_42398" data-name="Trazado 42398" d="M360.5,178.941l-.016-.48-.065-.472-.122-.439-.179-.407-.228-.382-.285-.342-.333-.317-.374-.269-.431-.244-.48-.2-.52-.179-.569-.146-.626-.114-.667-.081-.716-.049-.773-.016-3.692.016-.219.057-.187.089-.162.13-.13.163-.1.2-.057.244-.024.268.016.26.057.236.081.2.13.179.163.13.195.1.212.049.244.016,4.863.025.992.13.74.244.35.211.244.252.146.293.049.358v1.4l-12.215.008a2.121,2.121,0,0,0-1.489.61,2.084,2.084,0,0,0-.61,1.489v.008l.032,2.529.065.407.106.382.146.358.2.334.236.3.276.269.325.236.358.212.407.187.439.146.471.122.521.105.561.065.593.049.651.008,5.083.008,1.472-.081.659-.081.61-.106.569-.146.512-.17.472-.2.423-.228.374-.277.325-.3.277-.334.228-.366.179-.4.122-.439.073-.455.024-.5-.008-4.855Zm-2.481,5.172-.089.334-.195.293-.285.252-.415.212-.52.162-.643.114-.74.057-.415.008h-6.059l-.6-.024-.5-.073-.423-.122-.334-.163-.3-.252-.171-.252-.081-.228-.041-.374v-1.651h11.825Z" transform="translate(-318.02 -170.724)" fill="#333"/>
    </g>
    <g id="Grupo_11578" data-name="Grupo 11578" transform="translate(144.631 125.296)">
      <circle id="Elipse_7219" data-name="Elipse 7219" cx="19.69" cy="19.69" r="19.69" transform="translate(0 39.38) rotate(-90)" fill="#ff5100"/>
    </g>
    <path id="Trazado_42399" data-name="Trazado 42399" d="M182.9,145.973a17.585,17.585,0,1,0,17.583,17.587A17.607,17.607,0,0,0,182.9,145.973Zm0,34.091a16.5,16.5,0,1,1,16.5-16.5A16.523,16.523,0,0,1,182.9,180.064Z" transform="translate(-18.572 -18.572)" fill="#fff"/>
    <path id="Trazado_42400" data-name="Trazado 42400" d="M207.1,161.513a6.335,6.335,0,0,1,2.6.555v-6.535a2.607,2.607,0,0,0-5.213,0v6.545A6.327,6.327,0,0,1,207.1,161.513Z" transform="translate(-42.781 -22.908)" fill="#fff"/>
    <g id="Grupo_11579" data-name="Grupo 11579" transform="translate(160.065 140.728)">
      <path id="Trazado_42401" data-name="Trazado 42401" d="M208.708,185.113a4.256,4.256,0,1,0-4.256,4.259A4.262,4.262,0,0,0,208.708,185.113Z" transform="translate(-200.195 -180.855)" fill="#fff"/>
    </g>
    <path id="Trazado_42401-2" data-name="Trazado 42401" d="M229.133,197.236l-5.6-3.256a6.38,6.38,0,0,1-2.7,4.478l5.689,3.31a2.615,2.615,0,0,0,2.606-4.532Z" transform="translate(-52.886 -48.237)" fill="#fff"/>
    <path id="Trazado_42402" data-name="Trazado 42402" d="M183.678,194.012l-5.614,3.243a2.615,2.615,0,0,0,2.606,4.532l5.7-3.309A6.383,6.383,0,0,1,183.678,194.012Z" transform="translate(-25.683 -48.257)" fill="#fff"/>
  </g>
</svg>
