<?xml version="1.0" encoding="utf-8"?>
<!-- Generator: Adobe Illustrator 19.2.1, SVG Export Plug-In . SVG Version: 6.00 Build 0)  -->
<svg version="1.1" id="Layer_1" xmlns="http://www.w3.org/2000/svg" xmlns:xlink="http://www.w3.org/1999/xlink" x="0px" y="0px"
	 viewBox="0 0 2000 2000" style="enable-background:new 0 0 2000 2000;" xml:space="preserve">
<style type="text/css">
	.st0{fill:#0066FE;}
	.st1{fill:#020202;}
</style>
<g>
	<path class="st0" d="M915.9,1075.8c-49.8,0.2-98.7-5.4-146.3-20.6c0.7-2.2,1.5-4.3,2.2-6.5c21.1-59.8-9.4-124.8-68.8-147
		c-20.3-7.6-41.2-8.4-62.4-5.4c3.3-39.4,6.1-78.8,9.9-118.1c3.9-40.1,8-80.1,13.2-120.1c8.3-64.1,16.1-128.5,38.2-189.8
		c17.1-47.4,41.5-90.3,80.6-123.3c37.1-31.3,80.6-47,128.6-50.7c70.7-5.4,137.4,8.3,199.2,43.6c28.3,16.2,53.7,36.1,75.4,60.5
		c-3,0.7-6,1.3-8.9,2.1c-32.6,9.5-53.2,44-45.9,77c7.5,33.9,39.1,56.1,73,51.6c20.5-2.7,35.8-13.4,47.6-29.9
		c11.4,23.6,16.7,49,22.6,74.2c15.6,66.9,25.9,134.5,27,203.3c0.5,34.4-1.4,68.8-8.1,102.7c-0.2,1-0.1,2-0.2,3
		c-4.1,16.3-7.9,32.6-13.9,48.3c-15.9,41.5-40.4,75.7-80.7,96.9c-5.3,2.8-7.4,2.9-10.1-3.6c-31.6-78.3-125.3-111.9-198.6-70.7
		C942.4,980.1,918.4,1021.7,915.9,1075.8z"/>
	<path class="st1" d="M1251.7,499.3c-11.8,16.4-27,27.2-47.6,29.9c-34,4.5-65.5-17.8-73-51.6c-7.3-33,13.2-67.5,45.9-77
		c2.9-0.9,5.9-1.4,8.9-2.1c12.1-0.9,24-0.5,35.2,4.7c3.9,1.8,6.3-0.9,9-2.6c62.7-40,125.3-80,188-120
		c50.4-32.2,100.9-64.3,151.2-96.7c10.4-6.7,20.7-8.6,31.5-2.1c10.6,6.4,13.5,16.5,12.1,28.4c-5.4,44-10.7,88-16,132.1
		c-5.9,48.3-11.8,96.6-17.7,144.9c-2.3,19.2-4.6,38.4-7,58.2c5.4-0.1,9.7-2.2,14-3.7c10.3-3.6,19.4-1.8,28.1,4.6
		c32.9,24.1,65.8,48.1,98.7,72.2c12.9,9.5,15.9,20.6,9.8,35.5c-10.1,24.7-20.2,49.4-30.5,74c-6.6,15.8-21.4,22.7-35.8,16.6
		c-14.1-6-19.7-20.9-13.4-36.4c7-17.4,14.1-34.9,21.5-52.2c1.9-4.4,1-6.5-2.7-9.2c-21.9-15.8-43.7-31.7-65.5-47.8
		c-3.1-2.3-5.6-3.1-9.7-1.8c-24.9,8.2-49.9,16-74.9,23.7c-4.1,1.3-6.2,3.3-7.6,7.4c-8.5,24.8-17.1,49.5-25.9,74.2
		c-1.6,4.3-0.9,6.6,3,9.2c15.4,10.4,30.6,21.1,45.8,31.9c13.6,9.6,17,25.4,8.3,38c-8.8,12.8-25.1,15.1-39.1,5.3
		c-21.3-14.9-42.6-29.7-63.9-44.7c-13.9-9.8-17.1-19.7-11.6-35.6c12.9-37,25.9-73.9,38.6-110.9c3.6-10.5,10.1-17.2,20.9-20.3
		c10.3-3,20.3-6.7,30.5-9.6c4.1-1.2,5.5-3.1,6-7.2c4.8-40.5,9.8-81,14.8-121.4c5.9-48.3,11.8-96.6,17.7-145
		c1.4-11.3,2.7-22.5,4.2-35.2c-20.9,13.3-40.6,25.9-60.3,38.4c-76.2,48.6-152.3,97.3-228.6,145.8c-4.3,2.7-5.4,5-4.3,10.2
		C1263.9,468.5,1260,484.4,1251.7,499.3z"/>
	<path class="st1" d="M915.9,1075.8c2.5-54.1,26.6-95.7,73.8-122.2c73.3-41.2,167-7.5,198.6,70.7c2.6,6.5,4.7,6.4,10.1,3.6
		c40.3-21.2,64.8-55.4,80.7-96.9c6-15.7,9.8-32.1,13.9-48.3c61.2,52.5,60.9,154-0.7,208.7c-27.4,24.3-59.4,36.8-96.2,36.3
		c-4.9-0.1-7,1.5-8.9,5.9c-25.9,59-84,91.8-149,84.3c-58.9-6.8-108.4-54.3-120-115.3C916.5,1093.6,916.1,1084.7,915.9,1075.8z"/>
	<path class="st1" d="M640.6,896.4c21.2-3,42-2.2,62.4,5.4c59.5,22.2,89.9,87.2,68.8,147c-0.8,2.2-1.5,4.3-2.2,6.5
		c-15.3,32.6-39.5,55.3-74.3,65.5c-61.6,18.2-127-18.7-143.5-80.5C535,977.2,573,913.1,636.3,897.8
		C637.7,897.5,639.1,896.9,640.6,896.4z"/>
	<path class="st0" d="M686.9,1435.5c2.1,0.1,2.4-0.9,3-1.8c30.4-46.8,93.2-51.3,127.7-7.4c28.7,36.5,40.4,79.5,33.6,125.7
		c-9.3,63.5-81.4,81.9-120,53.5c-0.3,6.2,1.2,11.6,2.3,17.1c0.8,3.8-0.3,5.5-4,6.4c-10.4,2.6-20.8,5.1-30.9,8.4
		c-5.6,1.8-7.3,0.4-8.7-5c-12.1-45.5-24.5-90.9-36.8-136.3c-13.1-48.4-26.2-96.8-39.5-145.1c-1.4-5.2-1.2-8,5-9.3
		c10.9-2.4,21.7-5.5,32.4-8.8c5.7-1.8,8.1-1.1,9.7,5.4c7.7,30.1,16.1,60,24.2,89.9C685.6,1430.6,686.3,1433.1,686.9,1435.5z
		 M805.1,1528.6c-2.2-22.4-7.6-47.4-22.3-69.3c-10.5-15.6-25.4-22.7-44.1-19.1c-19.3,3.8-33.7,13.9-38.9,34.1
		c-0.8,3.1-0.9,5.8,0,8.9c7,25.5,13.9,51,20.7,76.6c1,3.8,2.8,6.9,5.7,9.7c14.3,13.9,33.9,17,53.8,8.2
		C797,1570.1,806,1554,805.1,1528.6z"/>
	<path class="st1" d="M1689.1,1613.7c-25.7,24.4-54.9,28.9-86.5,18.5c-25.8-8.5-42.6-31.6-43.3-57.2c-0.8-29.9,13.4-51.7,41-63.5
		c19.2-8.1,39.4-9.7,59.9-10c7.6-0.1,15.3-0.2,23,0.1c3.7,0.1,5.1-1,4.7-4.7c-0.3-2.5-0.1-5.1,0-7.6c0.2-15.3-3.9-29-19.2-35.1
		c-16.6-6.6-33-5.4-47.5,6.4c-4.5,3.7-7.7,8.5-8.1,14.2c-0.3,4.8-2.5,5-6.3,5c-12.2-0.2-24.5-0.4-36.7,0.1c-6,0.2-6.5-2.1-5.7-7.1
		c2.6-15.1,10.3-27,21.6-36.8c29.2-25.3,83.9-29.9,117.3-10.2c24,14.2,33.1,36.3,33.2,63c0.2,31.1,0.1,62.2,0,93.3
		c0,15.6,1,31.1,7.2,45.7c1.6,3.7,1.2,5.6-3.6,5.5c-13.5-0.2-27-0.2-40.5,0c-3.9,0.1-5.6-1.5-6.4-4.9
		C1691.8,1623.8,1690.6,1619.2,1689.1,1613.7z M1687.8,1553c0-5.6-0.1-11.2,0.1-16.8c0.1-3.3-1.1-4.4-4.4-4.3
		c-9.2,0.2-18.3-0.2-27.5,0.3c-11.7,0.6-23.3,2-33.6,8.6c-11.6,7.5-16.9,20.4-14,34.5c2.5,12.1,12,20.2,25.8,22.5
		c6.2,1,12.2,0.7,18.2-0.5c12.1-2.4,22.1-8.3,30.6-17.3c6.8-7.2,4.1-15.7,4.7-23.8C1687.8,1555.1,1687.8,1554.1,1687.8,1553z"/>
	<path class="st1" d="M634.5,1525c0.2,19.5-2.6,37-9.6,53.7c-17.3,41.4-58.5,63.7-103.9,58.1c-55.2-6.8-81.4-49.8-85.7-91.1
		c-2.5-23.9-1.5-47.3,7.4-69.9c17-43.6,58.2-67.8,104.6-61.4c47.3,6.5,79.8,39.8,85.7,87.7C633.9,1510.2,634.8,1518.3,634.5,1525z
		 M586.3,1523.2c-0.1-14.3-1.8-30.1-9.8-44.6c-9.6-17.4-24-26.6-44-26c-20.2,0.6-34.4,11.1-41.7,29.3c-11.3,28.2-11.7,57.2-1,85.7
		c7.7,20.6,24.6,31.3,45.4,31c20.8-0.3,36.3-11.6,44.5-32.3C584.7,1553.1,585.9,1539.2,586.3,1523.2z"/>
	<path class="st1" d="M1070.7,1525.9c0.9,15.7-1.2,31-6.3,45.9c-15.7,45.7-58.6,71-106.8,65c-50.6-6.4-80.7-44.5-85.6-92.1
		c-2.4-23.3-1.3-46.3,7.3-68.5c17-43.9,58.3-67.7,105.1-62c47.5,5.7,82,42.1,86.3,95.7C1071,1515.2,1070.7,1520.6,1070.7,1525.9z
		 M919.2,1526.4c0.1,15.9,1.8,31.5,9.3,45.9c9,17.5,23.5,26.4,43.1,26.3c19.7-0.1,33.8-9.6,42.5-27.1c5.8-11.6,7.9-24.1,8.7-36.9
		c1.3-19.3,0-38.2-9.4-55.7c-9.3-17.5-23.9-26.8-43.9-26.2c-20.9,0.6-34.6,11.8-42.7,30.4C920.8,1496.8,919.6,1511.5,919.2,1526.4z"
		/>
	<path class="st1" d="M1506.2,1494.9c-0.8,0-1.5,0-2.3,0c-5.9,0-12.4,1.6-17.4-0.4c-5.8-2.3-3.2-10.1-5.5-15.2
		c-7.3-16.1-19.1-25.6-36.9-26.6c-18.6-1-33.3,5.8-42.7,22.5c-4.9,8.8-7.5,18.4-8.3,28.4c-1.8,21.1-2.7,42.4,4,62.9
		c8.7,26.8,35.9,39.4,62,28.9c12.5-5.1,21.4-13.9,23.8-27.7c0.9-4.9,3-5.9,7.5-5.7c11,0.3,21.9,0.3,32.9,0c4.6-0.1,6.6,0.4,5.8,6.1
		c-4.7,33.8-33.3,61.8-69.8,67.6c-62,9.8-109.1-27.2-114.8-89.7c-1.9-21.3-1.9-42.3,3.9-63c13.6-48.5,56.3-75.8,106.5-68.4
		c39.4,5.8,64.9,28.3,72.6,64c3.5,16.4,3.5,16.4-13,16.4C1511.9,1494.9,1509.1,1494.9,1506.2,1494.9z"/>
	<path class="st1" d="M1124.8,1524.1c0-24.3-0.2-44.4,0.1-64.6c0.1-5.1-1.4-6.4-6.3-6.2c-7.9,0.4-15.8-0.1-23.7,0.2
		c-4.2,0.2-5.9-0.8-5.7-5.4c0.4-8.1,0.4-16.3,0-24.5c-0.2-4.6,0.9-6.4,5.8-6.1c7.4,0.4,14.8-0.4,22.2,0.3c6.8,0.6,7.9-2.1,7.7-8.1
		c-0.4-13,0-26-0.2-39c-0.1-4.4,1.3-5.7,5.6-5.6c12.5,0.3,25,0.4,37.5,0c5.2-0.2,5.7,2,5.6,6.2c-0.2,13.5,0.1,27-0.2,40.5
		c-0.1,4.5,0.8,6.3,5.8,6c8.9-0.4,17.9,0.2,26.8-0.2c4.9-0.2,6.1,1.4,5.8,6c-0.4,8.1-0.4,16.3,0,24.5c0.2,4.5-1.4,5.6-5.6,5.4
		c-9.2-0.3-18.4,0.1-27.5-0.2c-3.8-0.1-5.2,0.7-5.2,4.9c0.2,39.3,0,78.5,0.2,117.8c0.1,16.6,8.3,22.5,27.2,21c12-1,12-1,12,11.1
		c0,4.6,0,9.2,0,13.8c0,11.2,0,11.3-11.1,13.3c-13.6,2.4-27.3,3.3-40.9-0.5c-20.5-5.8-32.7-21.5-34.9-45.1
		C1123.6,1566.4,1125.4,1543.2,1124.8,1524.1z"/>
	<path class="st1" d="M354.4,1441.3c13-19.5,29.7-28.5,51.3-27.6c1.5,0.1,3.1,0.2,4.6,0.3c7.2,0.4,10.7,3.2,9.9,11.4
		c-0.9,9.6-0.6,19.4-0.2,29c0.2,5.6-0.9,7.7-7.1,6.8c-10.4-1.4-20.9-1.4-31.1,1.4c-8.8,2.5-16.1,7.3-21.7,14.7
		c-3.4,4.4-5,9.1-5,14.8c0.2,44.6,0,89.3,0.2,133.9c0,5.5-1,7.6-7,7.4c-12-0.5-24-0.3-36-0.1c-4.1,0.1-5.7-0.8-5.7-5.4
		c0.2-68.3,0.1-136.7,0-205c0-3.8,0.7-5.4,5-5.3c12.2,0.3,24.5,0.3,36.7,0c3.8-0.1,4.7,1.3,4.8,4.8
		C353.3,1428.1,353.9,1433.6,354.4,1441.3z"/>
	<path class="st1" d="M1299.7,1525.3c0,33.6-0.1,67.3,0.1,100.9c0,5.7-1.4,7.4-7.2,7.2c-12-0.5-24-0.3-35.9,0
		c-4.4,0.1-5.5-1.3-5.5-5.6c0.1-68.3,0.1-136.6,0-204.9c0-4,1-5.3,5.1-5.2c12.2,0.3,24.5,0.4,36.7,0c5.3-0.2,6.9,1.3,6.8,6.7
		C1299.6,1458,1299.7,1491.6,1299.7,1525.3z"/>
	<path class="st1" d="M1122.2,1714c0-13,0.4-25-0.2-36.9c-0.3-6.4,2.2-7.4,7.8-7.4c5.6-0.1,7.3,1.2,7.2,7.1
		c-0.3,36.4-0.1,72.9-0.2,109.3c0,3.3,2.1,8.2-4.8,7.5c-4.9-0.5-11.2,1.5-8.9-8.5c-6.3,4.5-11.7,8.5-18.6,9.6
		c-17.6,2.8-32.3-6.3-38.1-24.3c-3.9-12.1-4.1-24.6-1.2-37C1070.9,1709.6,1094.9,1694.4,1122.2,1714z M1122.3,1750
		c0-4.1,0-8.1,0-12.2c0-9.8-3.9-15.8-12.1-18.8c-8.8-3.2-19-0.8-24.4,5.7c-9.5,11.3-9.7,39-0.4,50.4c5.8,7.1,14.9,9.4,24.2,6.2
		c9-3.1,12.8-8.8,12.8-19.1C1122.3,1758.1,1122.3,1754,1122.3,1750z"/>
	<path class="st1" d="M939.2,1714.1c0-13.4,0.4-26.1-0.2-38.7c-0.3-7,3.9-5.5,7.8-5.6c4.2-0.2,7.7-0.7,7.6,5.9
		c-0.3,36.5-0.1,72.9-0.3,109.4c0,2.9,3.3,8.5-3.9,8.4c-5-0.1-11.7,2.3-10.2-8.1c-6.4,4.5-11.8,8.4-18.6,9.4
		c-16.8,2.5-30.6-5.2-36.8-21.7c-5.7-15-5.8-30.6-0.2-45.6c8.5-23,32.7-29.5,52.3-14.7C937.1,1713.1,937.8,1713.4,939.2,1714.1z
		 M939.2,1750c0-5.3-0.1-10.7,0-16c0-2.6-0.3-4.9-1.9-7.2c-8-11.8-27-12.3-35.5-1c-8.3,11.1-8.3,37.5,0,48.6
		c5.6,7.5,15.1,10.1,24.6,6.8c8.9-3.1,12.7-8.7,12.7-19C939.2,1758.2,939.2,1754.1,939.2,1750z"/>
	<path class="st1" d="M1256.9,1785.1c-24.3,18.9-51,9.4-57.6-18.9c-2.4-10.1-2.3-20.2-0.5-30.3c4.9-27.6,32.1-41.1,57.2-21.6
		c0-12.8,0.3-24.9-0.1-36.9c-0.2-6,1.4-7.9,7.5-7.6c5.4,0.2,7.9,0.7,7.9,7.3c-0.4,36-0.1,71.9-0.4,107.9c0,2.8,3.5,8.4-3.5,8.6
		C1262.3,1793.6,1255.3,1795.9,1256.9,1785.1z M1256.1,1750c0-5.3-0.1-10.7,0-16c0-2.6-0.3-4.9-1.9-7.2c-8.3-12-27.7-12.2-36-0.3
		c-7.5,10.7-7.6,35.8-0.3,46.8c5.5,8.2,14.9,11.3,24.8,8.2c9.4-3,13.3-8.6,13.3-19.3C1256.1,1758.1,1256.1,1754,1256.1,1750z"/>
	<path class="st1" d="M1523.8,1716.3c9.7-9.2,19.9-13.1,32-10.8c11.6,2.2,18,8.3,20.2,19.9c0.9,4.5,1.3,9.1,1.3,13.7
		c0.2,15,0.1,30.1,0.1,45.1c0,8.9-4.5,12-12.9,9.4c-3.5-1.1-2.1-3.7-2.1-5.6c-0.1-16.6,0-33.2-0.1-49.7c0-11.5-3-17.3-9.9-19.6
		c-9.1-3-19.1,0.2-25.5,7.9c-2.4,2.9-3.3,6.1-3.2,9.8c0.1,17.1-0.4,34.2,0.3,51.3c0.3,7.4-4,5.8-8.1,6c-4.5,0.3-7.4,0.3-7.3-6.1
		c0.3-37.2,0.4-74.5,0-111.7c-0.1-7.4,4.2-5.7,8.3-6c4.9-0.4,7.4,0.5,7.1,6.4C1523.5,1689,1523.8,1702,1523.8,1716.3z"/>
	<path class="st1" d="M1046.7,1792.7c-14.4,2.3-15.6,1.9-18.1-7.4c-8.3,7.3-17.7,10.7-28.7,9.7c-13.1-1.3-22.9-9.7-24.9-21.9
		c-1.9-12,4.3-23,16.2-28.2c9.9-4.4,20.4-4.3,30.8-3.7c6.2,0.4,7.3-2.1,6.8-7.5c-1-9.6-5.2-14.8-14-16.4c-9.4-1.8-18.4,2.1-22.2,9.4
		c-1.6,3.2-12.7,5.8-15,3.6c-1.4-1.3-0.4-2.9-0.1-4.2c1.7-6.8,6.2-11.7,12-15.1c11.9-7,24.6-8.1,37.4-3.1
		c10.5,4,16.1,12.2,16.5,23.5c0.3,10.2,0.2,20.4,0.2,30.6C1043.5,1772.2,1043.1,1782.6,1046.7,1792.7z M1017.9,1751.5
		c-7.9,0.2-14.5,0.3-20.6,3.6c-8.6,4.6-10.5,16.2-3.5,22.6c6.6,6.1,14.4,5.7,22.2,2.7c8.8-3.4,12.8-8.7,12.7-16.9
		C1028.5,1749.7,1031.6,1751.7,1017.9,1751.5z"/>
	<path class="st1" d="M1334.5,1754.4c-8.2,0-16.3,0.1-24.5-0.1c-3.8-0.1-4.8,1.3-4.2,5c1.6,10,6,18.1,15.7,21.8
		c10.3,3.9,20,2.3,28.4-5.3c4.1-3.7,9-2.9,11.9,1.6c1.9,3-1,4.1-2.2,5.5c-17.4,20.5-54.8,14.8-65.2-10.3c-6.6-16-6-32.5,2.1-48
		c7.7-14.7,23.1-21.9,39.1-19c15.5,2.8,24.9,13.1,27.6,30.4c2.9,18.4,2.9,18.4-15.8,18.4C1343.2,1754.4,1338.9,1754.4,1334.5,1754.4
		z M1329,1717.1c-11-0.2-22.4,10.9-22.6,21.7c-0.1,3.1,1.3,3.3,3.6,3.3c11.9,0,23.9-0.1,35.8,0c2.5,0,3.5-0.7,3.5-3.5
		C1349.5,1727.5,1340.1,1717.3,1329,1717.1z"/>
	<path class="st1" d="M1719.4,1754.4c-7.6,0-15.3,0.4-22.9-0.1c-6-0.4-6.2,2.4-5.2,6.8c2.3,9.8,7.1,17.7,17.1,20.7
		c9.9,2.9,19.3,1.5,26.9-6.1c2.9-2.9,4.5-4.2,8.6-1.1c4.7,3.6,3.9,5.7,0.4,9.3c-18.4,19.4-53.7,13.8-64.3-10.8
		c-7-16.3-6.2-32.9,2-48.7c7.5-14.4,22.9-21.6,38.4-18.9c15.5,2.7,25.3,13,28.3,29.9c3.3,18.9,3.3,19-15.5,19
		C1728.6,1754.4,1724,1754.4,1719.4,1754.4z M1712.5,1742.1c5.6,0,11.2-0.2,16.8,0.1c4.1,0.2,5.9-0.5,5-5.5
		c-2.3-12.3-9.6-19.7-20.5-19.6c-10.7,0.1-20.1,9.2-21.9,20.7c-0.6,3.7,0.7,4.4,3.8,4.4C1701.3,1742.1,1706.9,1742.1,1712.5,1742.1z
		"/>
	<path class="st1" d="M656.6,1754.4c-8.2,0-16.3,0.1-24.5-0.1c-3.8-0.1-4.8,1.2-4.3,4.9c1.5,10,6,18.1,15.6,21.8
		c10.3,4,20,2.3,28.4-5.2c4.2-3.7,8.8-3.1,11.9,1.5c2,3-1,4.1-2.1,5.5c-17.6,20.8-55.4,14.7-65.5-10.9c-6.2-15.6-5.5-31.6,2-46.7
		c7.3-14.8,23-22.6,38.7-19.9c16.1,2.7,25.5,12.8,28.4,30.5c3.1,18.5,3.1,18.5-15.7,18.5C665.2,1754.4,660.9,1754.4,656.6,1754.4z
		 M649.2,1742.1c5.6,0,11.2-0.4,16.8,0.1c5.5,0.5,5.7-2.3,4.9-6.4c-2.2-11.7-10-18.9-20.5-18.8c-10.5,0.1-20.4,9.6-22,20.8
		c-0.5,3.5,0.7,4.4,4,4.3C638,1742,643.6,1742.1,649.2,1742.1z"/>
	<path class="st1" d="M792.2,1795.1c-19.2-0.2-32-8.6-35.8-22.2c-1.3-4.8-0.5-6.4,4.7-6.1c5.2,0.3,9.2-0.4,11.8,6.8
		c3.9,11,26.9,12.9,34.5,3.8c4.5-5.4,3-13.1-3.4-17c-4.8-3-10.4-4-15.8-5.3c-6.9-1.7-13.8-3.5-19.9-7.5c-9.6-6.4-12.6-17.3-7.1-27.3
		c6.6-11.8,17.8-15.5,30.4-15.3c12.6,0.2,23.7,4.1,29.9,16.2c1.6,3.2,5,7.5,1.1,10.7c-3.7,2.9-12.6-0.7-14.7-4.9
		c-5.2-10.6-22.8-13.4-31-5c-5.5,5.6-4.3,13.9,2.9,17.1c5.3,2.3,11.1,3.7,16.7,5.2c5.7,1.5,11.2,3.2,16.4,6.1
		c15.6,8.9,16.3,28.9,1.3,38.9C807.1,1793.9,799.2,1795.3,792.2,1795.1z"/>
	<path class="st1" d="M420.2,1716.4c9.8-9.6,20.4-13.3,32.8-10.8c11.8,2.4,19.1,9.2,19.9,22.7c1.2,20.6,1,41.3,0.6,61.9
		c-0.1,6.3-6.3,2.3-9.6,3.2c-3.6,0.9-5.4-0.5-5.3-4.8c0.3-15,0.1-30.1,0.1-45.1c0-2.5,0-5.1,0-7.6c-0.4-12.8-5.7-18.3-17.4-18.2
		c-11.9,0.1-21.1,8.4-21.1,19.2c0,16.8-0.4,33.7,0.2,50.5c0.3,7.2-3.6,6-7.9,6.2c-5,0.3-7.7-0.2-7.6-6.7c0.5-24.7,0.2-49.4,0.2-74.2
		c0-3.2-1-7.2,4.5-6.4c4.1,0.6,10.5-2.8,10.1,5.8C419.6,1713.2,419.9,1714.2,420.2,1716.4z"/>
	<path class="st1" d="M368.3,1785.3c-8.4,7.9-17.5,10.2-27.5,9.8c-14.9-0.6-25.2-8.8-26-23.7c-1.1-20.4-0.7-40.8-0.6-61.2
		c0-7.3,6.1-2.9,9.3-3.8c3.6-1,5.5,0.4,5.4,4.7c-0.2,14.8-0.1,29.6-0.1,44.4c0,2.8-0.1,5.6,0.1,8.4c0.6,7.3,1.4,14.7,9.7,17.4
		c8.5,2.8,16.7,1.2,23.7-4.4c3.7-3,5.6-6.8,5.5-11.9c-0.2-17.6,0.2-35.2-0.3-52.8c-0.2-6.5,3.2-6,7.5-6c4.2,0,7.7-0.6,7.6,5.9
		c-0.4,24.5-0.1,49-0.3,73.5c0,3.1,2.5,8.4-4.5,7.9C373.2,1793.2,366.5,1796,368.3,1785.3z"/>
	<path class="st1" d="M1039.3,1327.3c-12.1,13.3-23.2,25.5-34.3,37.6c-6.9,7.5-12.5,17.9-21.1,21.6c-8.5,3.8-20,1-30.2,1.1
		c-2.2,0-4.5,0-8.3,0c2.7-4.3,4.8-7.6,6.9-10.9c9.6-15,19.2-30,28.9-44.9c1.3-2,2.2-4.6,5.5-4.6
		C1003.7,1327.3,1020.7,1327.3,1039.3,1327.3z"/>
	<path class="st1" d="M1433.6,1750.7c-0.2,6.4,0.4,12.7,3,18.7c3.8,8.8,10.4,13.5,20.2,13.5c9.6,0,16.8-3.8,20.3-13.1
		c2.7-7.4,9-4.1,12.8-3.3c4.6,1,1.1,5.7,0,8.1c-5.8,12.7-16.1,19.3-29.9,20.3c-15.6,1.1-28.4-4.2-35.5-18.6
		c-8.6-17.4-8.5-35.5,0.2-52.9c6.6-13.2,21.4-20.2,36.6-18.5c15.1,1.7,25.9,10.3,29.5,23.7c0.7,2.5,3.2,7.1-0.9,7.4
		c-3.9,0.3-10,4.3-12.6-3.5c-3.5-10.6-11-15.9-20.9-15.6c-10.1,0.3-17.9,6.6-21,17C1433.8,1739.5,1433.3,1745.1,1433.6,1750.7z"/>
	<path class="st1" d="M527.9,1707c1.4-0.3,2.1-0.6,2.8-0.6c11.9-0.5,11.9-0.5,15.7,10.7c6,18.1,12,36.1,18.2,54.9
		c3.2-4.3,3.8-9.1,5.2-13.4c5.3-15.6,10.2-31.4,15.3-47.1c1.4-4.2,11.5-7.5,15-4.9c1.7,1.2,0.7,2.8,0.3,4.1
		c-9.5,26.5-19.1,53-28.5,79.6c-1.2,3.4-3.3,3.5-5.8,3.2c-2.8-0.3-6.4,1.6-7.9-2.6C548.1,1763,538.1,1735.1,527.9,1707z"/>
	<path class="st1" d="M1275.5,1335.7c16.5,0,27.7,10.6,27.6,26.1c-0.1,15.2-11.1,25.4-27.5,25.4c-16.6,0.1-27.2-9.8-27.3-25.3
		C1248.2,1345.9,1258.8,1335.7,1275.5,1335.7z"/>
	<path class="st1" d="M1655.7,1731.9c0,18.6-0.3,37.3,0.2,55.9c0.1,5.7-2.3,6.3-6.7,5.8c-3.8-0.4-8.6,2.1-8.6-5.6
		c0.3-37.5,0.3-75,0-112.5c-0.1-7,4.1-5.4,8-5.6c3.8-0.1,7.4-1,7.2,5.4C1655.4,1694.1,1655.7,1713,1655.7,1731.9z"/>
	<path class="st1" d="M718,1716.1c6.9-8.1,13.5-11.2,21.5-11.3c7.4-0.1,5.8,5,6.2,9.4c0.5,5.2-1.8,5.5-6.2,5.5
		c-15.2-0.3-21.1,5.8-21.1,21c0,15.8-0.4,31.6,0.2,47.4c0.2,7.1-4,5.5-7.8,5.5c-3.9,0-7.7,1.3-7.6-5.6c0.5-24.4,0.1-48.9,0.3-73.4
		c0-2.9-3.1-8.4,4.1-8.2C713,1706.5,719.9,1704.2,718,1716.1z"/>
	<path class="st1" d="M845.6,1749.5c0-12.7,0.3-25.5-0.1-38.2c-0.2-6.8,4.3-4.8,7.6-4.9c3.5-0.1,7.6-1.5,7.6,5.1
		c-0.3,25.7-0.3,51.5,0,77.2c0.1,7.6-5.2,4.3-8.5,4.7c-3.4,0.5-6.9,1.1-6.6-4.9C846,1775.5,845.6,1762.5,845.6,1749.5z"/>
	<path class="st1" d="M1615.8,1750.4c0,12.8-0.3,25.5,0.1,38.3c0.2,6.1-3.5,5.1-6.8,4.7c-3.3-0.3-8.5,2.7-8.4-4.8
		c0.3-25.8,0.2-51.5,0-77.3c-0.1-7.5,5.1-4.5,8.5-4.9c3.5-0.4,7-1,6.7,5C1615.5,1724.4,1615.8,1737.4,1615.8,1750.4z"/>
	<path class="st1" d="M512.4,1750.5c0,12.7-0.3,25.4,0.1,38.1c0.2,6.9-4.3,4.7-7.6,4.8c-3.4,0.1-7.5,1.6-7.4-5
		c0.3-25.7,0.3-51.4,0-77.1c-0.1-6.6,4.1-4.9,7.6-5c3.6-0.1,7.6-1.3,7.4,5.2C512.1,1724.6,512.4,1737.6,512.4,1750.5z"/>
	<path class="st1" d="M862,1683.2c-0.3,5.4-3.1,8.5-8.5,8.7c-5.2,0.2-8.9-2.4-9.1-7.9c-0.2-5.7,2.8-8.9,8.7-9
		C858.6,1674.9,861.3,1677.9,862,1683.2z"/>
	<path class="st1" d="M1617.4,1683.4c-0.5,5.9-3.9,8.6-9.2,8.4c-5.4-0.2-8.5-3.2-8.3-8.8c0.2-5.7,3.5-8.2,9-8
		C1614.5,1675.2,1617.1,1678.3,1617.4,1683.4z"/>
	<path class="st1" d="M513.9,1682.4c0,6.6-3.3,9.4-8.6,9.5c-5.2,0-8.7-2.6-8.7-8.4c0-5.6,3-8.4,8.5-8.5
		C510.6,1674.9,513.6,1677.7,513.9,1682.4z"/>
</g>
</svg>
